<?xml version="1.0" encoding="utf-8"?>
<!-- Generator: Adobe Illustrator 18.0.0, SVG Export Plug-In . SVG Version: 6.00 Build 0)  -->
<!DOCTYPE svg PUBLIC "-//W3C//DTD SVG 1.1//EN" "http://www.w3.org/Graphics/SVG/1.1/DTD/svg11.dtd">
<svg version="1.1" id="图层_1" xmlns="http://www.w3.org/2000/svg" xmlns:xlink="http://www.w3.org/1999/xlink" x="0px" y="0px"
	 viewBox="0 0 100 100" enable-background="new 0 0 100 100" xml:space="preserve">
<circle fill="#79D6F8" cx="49.3" cy="49.4" r="45"/>
<g>
	<path fill="#FFFFFF" d="M39.8,55.4l-2.5,2.5h-9.5l9.3-9.3h9.4L45,50.1h24.9v4.7L59.1,66.5l-8.9,4l-21.6,0v-5.4h22l9.1-9.7
		L39.8,55.4z M40.1,34.4l-2.4,2.4h-9.7l9.2-9.3h9.7l-1.6,1.6h24.4v5l-9.1,9.9l-9,4.1l-22.6,0v-5.4l23.1,0l7.9-8.3L40.1,34.4z
		 M47.2,34.6c0.6,0,1.3,0.2,2,0.5s1.2,0.8,1.5,1.5s0.5,1.3,0.5,2.1s-0.2,1.4-0.5,2c-0.4,0.6-0.9,1.1-1.5,1.5s-1.3,0.5-2,0.5
		c-0.7,0-1.4-0.2-2-0.5s-1.1-0.9-1.5-1.5s-0.5-1.3-0.6-2s0.2-1.4,0.6-2c0.4-0.7,0.9-1.2,1.5-1.5S46.5,34.6,47.2,34.6z M47.2,56.2
		c0.6,0,1.3,0.2,1.9,0.6s1.2,0.8,1.5,1.5s0.5,1.3,0.5,2c0,0.8-0.2,1.4-0.5,2.1s-0.8,1.1-1.5,1.5s-1.3,0.5-2,0.5
		c-0.7,0-1.4-0.2-2-0.5s-1.1-0.9-1.5-1.5s-0.5-1.3-0.6-2s0.2-1.4,0.6-2c0.4-0.6,0.9-1.1,1.5-1.5S46.5,56.2,47.2,56.2z"/>
</g>
<g>
</g>
<g>
</g>
<g>
</g>
<g>
</g>
<g>
</g>
<g>
</g>
</svg>
